PathFileType	4	(X/Y/Z)	C:\Users\ebm\Documents\Erivelton\Erivelton\propulsion1.trc
DataRate	CameraRate	NumFrames	NumMarkers	Units	OrigDataRate	OrigDataStartFrame	OrigNumFrames
150.00	150.00	      34	28	mm	150.00	1035	      1182
Frame#	Time	IJ			PX			C7			T8			RAC			RAS			RPS			RAI			RPI			RLE			RME			RRS			RUS			R3M			R5M			LAC			LAS			LPS			LAI			LPI			LLE			LME			LRS			LUS			L3M			L5M			RW			LW			V_mid_elbow_r			V_mid_elbow_l			V_mid_wrist_r			V_mid_wrist_l			V_mid_trunk_low			V_mid_trunk_upp			
		X1	Y1	Z1	X2	Y2	Z2	X3	Y3	Z3	X4	Y4	Z4	X5	Y5	Z5	X6	Y6	Z6	X7	Y7	Z7	X8	Y8	Z8	X9	Y9	Z9	X10	Y10	Z10	X11	Y11	Z11	X12	Y12	Z12	X13	Y13	Z13	X14	Y14	Z14	X15	Y15	Z15	X16	Y16	Z16	X17	Y17	Z17	X18	Y18	Z18	X19	Y19	Z19	X20	Y20	Z20	X21	Y21	Z21	X22	Y22	Z22	X23	Y23	Z23	X24	Y24	Z24	X25	Y25	Z25	X26	Y26	Z26	X27	Y27	Z27	X28	Y28	Z28	

1035	6.893																												5008.66846	809.68390	409.74191																																																							
1036	6.900																												5019.59229	807.30280	409.01907																																																							
1037	6.907																												5030.71924	804.60956	408.10419																																																							
1038	6.913																												5041.85498	801.75824	407.08734																																																							
1039	6.920																												5053.10254	798.79388	405.95398																																																							
1040	6.927																												5064.60938	795.68274	404.63211																																																							
1041	6.933																												5076.60498	792.37769	403.23721																																																							
1042	6.940																												5088.27783	789.19855	401.89697																																																							
1043	6.947																												5100.16846	786.08405	400.33780																																																							
1044	6.953																												5112.22070	783.06848	398.66611																																																							
1045	6.960																												5124.36963	780.25531	396.99805																																																							
1046	6.967																												5136.73535	777.61755	395.14291																																																							
1047	6.973																												5148.71045	775.15820	393.32782																																																							
1048	6.980																												5160.84131	772.90668	391.33768																																																							
1049	6.987																												5173.39746	770.56946	389.59415																																																							
1050	6.993																												5185.68213	768.46533	387.65445																																																							
1051	7.000																												5197.91455	766.53461	385.68848																																																							
1052	7.007																												5210.47461	764.63519	383.78674																																																							
1053	7.013																												5222.76074	762.99329	381.76947																																																							
1054	7.020																												5235.40381	761.55908	379.93036																																																							
1055	7.027																												5247.81934	760.01654	377.96194																																																							
1056	7.033																												5260.12061	758.78168	375.75162																																																							
1057	7.040																												5272.46289	757.47345	373.87018																																																							
1058	7.047																																																																																					
1059	7.053																																																																																					
1060	7.060																																																																																					
1061	7.067																																																																																					
1062	7.073																																																																																					
1063	7.080																																																																																					
1064	7.087																																																																																					
1065	7.093																																																																																					
1066	7.100																																																																																					
1067	7.107																																																																																					
1068	7.113																																																																																					
